#!OML:ASF I:\Random Stuff\random\construction\7_22_03\Session 2\subj1.ASF
:FULLY-SPECIFIED
:DEGREES
638
root -1.71787 17.7353 0.434971 -24.7075 84.9987 -30.9028
lowerback -1.60204 0.0942305 0.977236
upperback -3.82802 0.232717 1.47365
thorax -3.03582 0.141229 0.962779
lowerneck -22.4178 -1.94846 0.783661
upperneck 32.1538 -3.65576 2.69981
head 15.0104 -0.830986 0.344843
rclavicle -5.64051e-015 2.04748e-014
rhumerus 37.9837 11.3899 -69.34
rradius 105.796
rwrist -47.6226
rhand -31.6198 2.9485
rfingers 7.12502
rthumb -4.88163 -26.9753
lclavicle -5.64051e-015 2.04748e-014
lhumerus -41.9109 -39.7494 111.953
lradius 65.5956
lwrist 51.1723
lhand -21.0565 65.7739
lfingers 7.12502
lthumb 5.3198 -95.6871
rfemur -2.21999 15.9799 20.3462
rtibia 4.69165
rfoot -2.17944 -21.2974
rtoes -18.4353
lfemur -9.65674 -16.6706 -13.2373
ltibia 19.8649
lfoot -15.3804 16.7791
ltoes -28.0468
639
root -1.71912 17.7351 0.435653 -24.4629 85.0228 -30.6688
lowerback -1.67558 0.0775689 0.935987
upperback -3.78975 0.20802 1.49045
thorax -2.95473 0.130207 1.0035
lowerneck -22.5364 -1.95289 0.735961
upperneck 32.1822 -3.6363 2.66199
head 15.0495 -0.833726 0.340051
rclavicle -1.22377e-014 -3.57812e-015
rhumerus 37.6033 11.6329 -69.107
rradius 105.841
rwrist -47.7536
rhand -31.7761 2.58292
rfingers 7.12502
rthumb -5.03251 -27.3373
lclavicle -1.22377e-014 -3.57812e-015
lhumerus -41.8461 -39.6666 111.925
lradius 65.5858
lwrist 51.3075
lhand -20.9382 65.9047
lfingers 7.12502
lthumb 5.43402 -95.815
rfemur -2.35615 15.9658 20.3125
rtibia 4.92746
rfoot -2.38337 -21.3586
rtoes -18.051
lfemur -9.65092 -16.6726 -13.2593
ltibia 19.8069
lfoot -15.3161 16.7243
ltoes -27.9819
640
root -1.71983 17.7346 0.436287 -24.0649 85.03 -30.2641
lowerback -1.61934 0.0966416 0.979566
upperback -3.84329 0.235487 1.44714
thorax -3.04175 0.142203 0.934238
lowerneck -22.5303 -1.98472 0.710976
upperneck 32.2492 -3.66139 2.63139
head 15.079 -0.849288 0.327577
rclavicle -1.24799e-014 3.97569e-015
rhumerus 37.0267 11.8349 -68.9281
rradius 105.788
rwrist -47.7711
rhand -31.9419 2.25329
rfingers 7.12502
rthumb -5.1926 -27.6631
lclavicle -1.24799e-014 3.97569e-015
lhumerus -42.0179 -39.5824 112.023
lradius 65.5816
lwrist 51.3775
lhand -20.8407 66.0308
lfingers 7.12502
lthumb 5.52817 -95.9387
rfemur -2.46572 15.973 20.2768
rtibia 5.15733
rfoot -2.56615 -21.4004
rtoes -17.7506
lfemur -9.61713 -16.6054 -13.3008
ltibia 19.7501
lfoot -15.2138 16.6642
ltoes -28.3395
641
root -1.72057 17.7344 0.435581 -23.4256 85.0248 -29.5902
lowerback -1.71452 0.0858022 0.928745
upperback -3.77325 0.216795 1.46499
thorax -2.9157 0.13419 0.981359
lowerneck -22.5376 -1.9467 0.75197
upperneck 32.1995 -3.58764 2.53366
head 15.0525 -0.830335 0.293141
rclavicle 6.43565e-015 -3.97569e-015
rhumerus 36.6458 12.0958 -68.6734
rradius 105.655
rwrist -47.7802
rhand -32.0772 1.78181
rfingers 7.12502
rthumb -5.32331 -28.1313
lclavicle 6.43565e-015 -3.97569e-015
lhumerus -41.917 -39.42 111.991
lradius 65.5614
lwrist 51.4084
lhand -20.909 66.0561
lfingers 7.12502
lthumb 5.46222 -95.9657
rfemur -2.51342 16.0006 20.231
rtibia 5.32519
rfoot -2.54646 -21.4221
rtoes -18.068
lfemur -9.55571 -16.5452 -13.368
ltibia 19.7065
lfoot -15.2113 16.6642
ltoes -28.5044
642
root -1.723 17.734 0.434685 -22.9211 85.0308 -29.0658
lowerback -1.76524 0.0744697 0.896281
upperback -3.74711 0.199634 1.46504
thorax -2.86 0.126349 0.999796
lowerneck -22.4794 -1.92019 0.777949
upperneck 32.1381 -3.54872 2.51181
head 15.0093 -0.81665 0.286898
rclavicle -7.52897e-015 -1.59028e-015
rhumerus 36.1286 12.3694 -68.4584
rradius 105.459
rwrist -47.9229
rhand -32.1347 1.58769
rfingers 7.12502
rthumb -5.37878 -28.324
lclavicle -7.52897e-015 -1.59028e-015
lhumerus -41.9274 -39.3133 112.019
lradius 65.5482
lwrist 51.4783
lhand -20.8472 66.0487
lfingers 7.12502
lthumb 5.52188 -95.9567
rfemur -2.57602 16.0122 20.1866
rtibia 5.46632
rfoot -2.49891 -21.4407
rtoes -18.4599
lfemur -9.52505 -16.5499 -13.4149
ltibia 19.6707
lfoot -15.2692 16.6637
ltoes -28.1415
643
root -1.72679 17.7338 0.434348 -22.624 85.0435 -28.761
lowerback -1.76036 0.0605749 0.887304
upperback -3.76505 0.181457 1.45194
thorax -2.88106 0.117406 0.991507
lowerneck -22.3721 -1.89229 0.80004
upperneck 32.078 -3.52083 2.53899
head 14.9577 -0.800409 0.300185
rclavicle -6.05051e-015 8.34896e-015
rhumerus 35.4817 12.6862 -68.2885
rradius 105.244
rwrist -48.3615
rhand -32.2739 1.644
rfingers 7.12502
rthumb -5.5132 -28.2643
lclavicle -6.05051e-015 8.34896e-015
lhumerus -41.9936 -39.2685 112.083
lradius 65.4849
lwrist 51.6616
lhand -20.7297 65.9624
lfingers 7.12502
lthumb 5.63534 -95.8675
rfemur -2.64969 16.0097 20.1495
rtibia 5.58703
rfoot -2.55712 -21.4519
rtoes -18.5153
lfemur -9.52135 -16.5432 -13.4466
ltibia 19.6477
lfoot -15.2431 16.6559
ltoes -28.0569
644
root -1.72714 17.7331 0.433426 -22.1557 84.9656 -28.2493
lowerback -1.77044 0.0803935 0.914757
upperback -3.75984 0.207148 1.43823
thorax -2.87014 0.129178 0.961853
lowerneck -22.2503 -1.86081 0.850007
upperneck 32.0285 -3.48624 2.53446
head 14.9061 -0.782153 0.296973
rclavicle 5.67158e-015 -5.96354e-016
rhumerus 34.793 13.0712 -68.1342
rradius 104.999
rwrist -49.0938
rhand -32.746 2.09991
rfingers 7.12502
rthumb -5.96901 -27.796
lclavicle 5.67158e-015 -5.96354e-016
lhumerus -42.0281 -39.2597 112.122
lradius 65.4153
lwrist 51.8373
lhand -20.7711 65.8104
lfingers 7.12502
lthumb 5.59531 -95.7165
rfemur -2.64842 16.0978 20.1399
rtibia 5.64062
rfoot -2.60618 -21.4582
rtoes -18.5082
lfemur -9.44818 -16.4846 -13.4808
ltibia 19.6474
lfoot -15.241 16.6983
ltoes -28.1041
